<?xml version="1.0" encoding="utf-8"?>
<!-- Generator: Adobe Illustrator 23.0.2, SVG Export Plug-In . SVG Version: 6.00 Build 0)  -->
<svg version="1.1" id="Layer_1" xmlns="http://www.w3.org/2000/svg" xmlns:xlink="http://www.w3.org/1999/xlink" x="0px" y="0px"
	 viewBox="0 0 504 504" style="enable-background:new 0 0 504 504;" xml:space="preserve">
<style type="text/css">
	.st0{fill:#58595B;}
</style>
<path class="st0" d="M25.2,503.6h302c13.9,0,25.1-11.3,25.2-25.2v-50.3c-0.1-45.9-28.8-86.8-71.9-102.4c-0.3-0.1-0.5-0.2-0.8-0.3
	c-11.6-4.2-23.9-6.3-36.3-6.3h-33.6v-16.8H260c32.4,0,58.7-26.3,58.7-58.7v-41.9c13.9,0,25.2-11.3,25.2-25.2
	c-0.1-13.9-11.3-25.1-25.2-25.2V92.6c0-26.9-18.3-50.3-44.4-56.9c-57-47.2-139.4-47.2-196.4,0c-26.1,6.6-44.4,30-44.4,56.9v58.7
	c-13.9,0.1-25.1,11.3-25.2,25.2c0,13.9,11.3,25.1,25.2,25.2v41.9c0,32.4,26.3,58.7,58.7,58.7h50.3v16.8H109
	c-12.4,0-24.6,2.2-36.3,6.3c-0.3,0.1-0.5,0.2-0.8,0.3C28.8,341.3,0.1,382.2,0,428.1v50.3C0,492.3,11.3,503.6,25.2,503.6z M109,335.8
	v50.3H83.9v-46.8C92.1,337.1,100.5,335.9,109,335.8z M75.5,486.8v-83.9h201.3v83.9H75.5z M335.5,428.1v50.3c0,4.6-3.8,8.4-8.4,8.4
	h-33.6v-83.9c0-6-3.2-11.5-8.4-14.4V346C316,361.8,335.5,393.5,335.5,428.1z M268.4,339.4v46.8h-25.2v-50.3
	C251.8,335.9,260.2,337.1,268.4,339.4z M324.7,170.6c1.6,1.5,2.4,3.6,2.4,5.8c0,4.6-3.8,8.4-8.4,8.4v-16.8
	C321,168.1,323.2,169,324.7,170.6z M241.9,33.9H110.4C151.4,11.5,200.9,11.5,241.9,33.9z M25.2,176.5c0-2.3,0.9-4.4,2.6-6
	c1.5-1.6,3.6-2.4,5.8-2.4v16.8C28.9,184.8,25.2,181.1,25.2,176.5z M51.2,252H151c4.6,0,8.4-3.8,8.4-8.4c0-4.6-3.8-8.4-8.4-8.4H50.3
	V92.6c0-23.2,18.8-41.9,41.9-41.9H260c23.2,0,41.9,18.8,41.9,41.9v142.6h-109c-4.6,0-8.4,3.8-8.4,8.4c0,4.6,3.8,8.4,8.4,8.4h108.2
	c-4,19.5-21.2,33.5-41.1,33.6H92.3C72.3,285.5,55.2,271.5,51.2,252z M151,361c4.6,0,8.4-3.8,8.4-8.4v-50.3h33.6v50.3
	c0,4.6,3.8,8.4,8.4,8.4c4.6,0,8.4-3.8,8.4-8.4v-16.8h16.8v50.3H125.8v-50.3h16.8v16.8C142.6,357.2,146.4,361,151,361z M16.8,428.1
	c0-34.6,19.5-66.3,50.3-82.1v42.5c-5.2,3-8.4,8.5-8.4,14.4v83.9H25.2c-4.6,0-8.4-3.8-8.4-8.4V428.1z"/>
<path class="st0" d="M285.2,193.2v-50.3c0-13.9-11.3-25.1-25.2-25.2H92.3c-13.9,0-25.1,11.3-25.2,25.2v50.3
	c0,13.9,11.3,25.2,25.2,25.2H260C273.9,218.4,285.2,207.1,285.2,193.2z M83.9,193.2v-50.3c0-4.6,3.8-8.4,8.4-8.4h20l-10.7,21.4
	c-1.3,2.7-1.1,5.9,0.5,8.4c1.7,2.5,4.5,3.9,7.5,3.8c3-0.2,5.7-1.9,7-4.6l14.5-28.9h23.2l-19.1,38.2c-2.1,4.1-0.4,9.2,3.8,11.3
	c4.1,2.1,9.2,0.4,11.3-3.8l22.8-45.7H260c4.6,0,8.4,3.8,8.4,8.4v50.3c0,4.6-3.8,8.4-8.4,8.4H92.3C87.6,201.6,83.9,197.9,83.9,193.2z
	"/>
<path class="st0" d="M109,428.1c0,4.6-3.8,8.4-8.4,8.4c-4.6,0-8.4-3.8-8.4-8.4c0-4.6,3.8-8.4,8.4-8.4
	C105.3,419.7,109,423.5,109,428.1z"/>
<path class="st0" d="M260,428.1c0,4.6-3.8,8.4-8.4,8.4c-4.6,0-8.4-3.8-8.4-8.4c0-4.6,3.8-8.4,8.4-8.4
	C256.3,419.7,260,423.5,260,428.1z"/>
<path class="st0" d="M487.2,140.2c-6.6-6.5-17.2-6.5-23.7,0l-27.9,27.9c-6.3,6.3-6.6,16.4-0.6,23l-20.1,20
	c-7.8,7.9-12.2,18.6-12.3,29.7v44.8c-9.3,0-16.8,7.5-16.8,16.8v184.5c0,9.3,7.5,16.8,16.8,16.8h16.8c9.3,0,16.8-7.5,16.8-16.8V369.4
	c9.3,0,16.8-7.5,16.8-16.8v-0.4c4,5.3,10.2,8.5,16.8,8.7c4.6,0,8.4-3.8,8.4-8.4c0-4.6-3.8-8.4-8.4-8.4c-4.9,0-13.1-17-16.8-34.5
	v-7.4c0-9.3-7.5-16.8-16.8-16.8h-16.8v-44.8c0-6.7,2.7-13.1,7.3-17.8l20-19.9l0.7,0.7c6.6,6.5,17.2,6.5,23.7,0l27.9-27.9
	c6.5-6.6,6.5-17.2,0-23.7L487.2,140.2z M436.2,352.6c-9.3,0-16.8,7.5-16.8,16.8v117.4h-16.8V302.3h8.4l25.2,0V352.6z M459.3,191.8
	L459.3,191.8l-6.6-6.6l-5.3-5.3l27.9-27.9l11.9,11.9L459.3,191.8z"/>
</svg>
