<?xml version="1.0" encoding="utf-8"?>
<!-- Generator: Adobe Illustrator 23.0.2, SVG Export Plug-In . SVG Version: 6.00 Build 0)  -->
<svg version="1.1" id="Capa_1" xmlns="http://www.w3.org/2000/svg" xmlns:xlink="http://www.w3.org/1999/xlink" x="0px" y="0px"
	 viewBox="0 0 512 512" style="enable-background:new 0 0 512 512;" xml:space="preserve">
<style type="text/css">
	.st0{fill:none;stroke:#58595B;stroke-width:20;stroke-miterlimit:10;}
</style>
<g>
	<g>
		<path class="st0" d="M235,112.9c-4.5,0.1-9.1,1.2-13.1,3.2l-0.4-28.3c-0.1-4.4-2.1-8.5-5.5-11.4c-3.3-2.8-7.5-4.3-11.9-4.2
			l-31.5,0.5c1.3-3.1,2-6.4,1.9-9.7l0-0.8c-0.2-14.1-13-25.5-28.6-25.3c-15.6,0.2-28,11.9-27.8,26.1l0,0.8c0,3.4,0.8,6.6,2.2,9.7
			l-31.5,0.5c-9.5,0.1-17.1,7.4-17,16.2l0.4,28.3c-4.1-1.9-8.7-2.8-13.2-2.8l-1,0c-15.6,0.2-28,11.9-27.8,26.1s13,25.5,28.6,25.3
			l1,0c4.5-0.1,9.1-1.2,13.1-3.2l0.4,28.3c0.1,8.8,7.9,15.8,17.4,15.7l33.6-0.6c4.2-0.1,8.2-2.4,10-6c1.8-3.4,1.5-7.3-0.6-10.5
			c-1.4-2-2-4.2-2.1-6.5l0-0.8c-0.1-3.5,1.5-6.9,4.4-9.5c3-2.8,7.2-4.4,11.7-4.4c4.5-0.1,8.6,1.4,11.8,4.1c2.9,2.6,4.6,5.9,4.7,9.4
			l0,0.8c0,2.3-0.6,4.5-1.9,6.5c-2.1,3.3-2.1,7.2-0.3,10.5c2,3.6,6,5.8,10.2,5.7l33.5-0.5c4.9-0.1,9.4-2.1,12.5-5.3
			c2.8-2.9,4.4-6.7,4.4-10.9l-0.4-28.3c4.1,1.9,8.7,2.8,13.2,2.8l1,0c15.6-0.2,28-11.9,27.8-26.1c-0.2-14.1-13-25.5-28.6-25.3
			L235,112.9z"/>
	</g>
</g>
<g>
	<g>
		<path class="st0" d="M418.7,223c0-4.6-1-9.1-2.9-13.1l28.4,0.1c4.3,0,8.5-1.9,11.5-5.3c2.9-3.1,4.4-7.4,4.4-11.9l0.1-31.4
			c3,1.3,6.3,2.1,9.7,2.1l0.9,0c14.1,0,25.7-12.5,25.8-28.1c0.1-15.5-11.4-28.3-25.6-28.3l-0.9,0c-3.4,0-6.7,0.7-9.7,2.1l0.1-31.5
			c0-9.5-7.1-17.2-15.8-17.2l-28.4-0.1c2-4,3-8.6,3-13.1l0-0.9c0.1-15.5-11.4-28.3-25.6-28.3c-14.1,0-25.7,12.5-25.8,28.1l0,0.9
			c0,4.6,1,9.1,2.9,13.1l-28.4-0.1c-8.8,0-15.9,7.6-15.9,17.1l-0.1,33.6c0,4.3,2.2,8.2,5.8,10.2c3.4,1.9,7.3,1.7,10.5-0.4
			c2-1.3,4.2-1.9,6.6-2l0.9,0c3.5,0,6.9,1.6,9.4,4.6c2.7,3.1,4.2,7.2,4.2,11.8c0,4.4-1.6,8.7-4.3,11.7c-2.6,2.9-5.9,4.4-9.4,4.5
			l-0.9,0c-2.3,0-4.5-0.7-6.5-2c-3.2-2.1-7.1-2.3-10.5-0.5c-3.6,1.9-5.9,5.8-5.9,10.2l-0.2,33.5c0,5,2,9.4,5,12.6
			c2.8,2.9,6.6,4.6,10.8,4.6l28.4,0.1c-2,4-3,8.6-3,13.1l0,0.9c-0.1,15.5,11.4,28.3,25.6,28.3c14.1,0,25.7-12.5,25.8-28.1L418.7,223
			z"/>
	</g>
</g>
<g>
	<g>
		<path class="st0" d="M286.6,398.2c4.5-0.1,9.1-1.2,13.1-3.2l0.4,28.3c0.1,4.4,2.1,8.5,5.5,11.4c3.3,2.8,7.5,4.3,11.9,4.2l31.5-0.5
			c-1.3,3.1-2,6.4-1.9,9.7l0,0.8c0.2,14.1,13,25.5,28.6,25.3c15.6-0.2,28-11.9,27.8-26.1l0-0.8c0-3.4-0.8-6.6-2.2-9.7l31.5-0.5
			c9.5-0.1,17.1-7.4,17-16.2l-0.4-28.3c4.1,1.9,8.7,2.8,13.2,2.8l1,0c15.6-0.2,28-11.9,27.8-26.1s-13-25.5-28.6-25.3l-1,0
			c-4.5,0.1-9.1,1.2-13.1,3.2l-0.4-28.3c-0.1-8.8-7.9-15.8-17.4-15.7l-33.6,0.6c-4.2,0.1-8.2,2.4-10,6c-1.8,3.4-1.5,7.3,0.6,10.5
			c1.4,2,2,4.2,2.1,6.5l0,0.8c0.1,3.5-1.5,6.9-4.4,9.5c-3,2.8-7.2,4.4-11.7,4.4c-4.5,0.1-8.6-1.4-11.8-4.1c-2.9-2.6-4.6-5.9-4.7-9.4
			l0-0.8c0-2.3,0.6-4.5,1.9-6.5c2.1-3.3,2.1-7.2,0.3-10.5c-2-3.6-6-5.8-10.2-5.7l-33.5,0.5c-4.9,0.1-9.4,2.1-12.5,5.3
			c-2.8,2.9-4.4,6.7-4.4,10.9l0.4,28.3c-4.1-1.9-8.7-2.8-13.2-2.8l-1,0c-15.6,0.2-28,11.9-27.8,26.1s13,25.5,28.6,25.3L286.6,398.2z
			"/>
	</g>
</g>
<g>
	<g>
		<path class="st0" d="M102.9,288.1c0,4.6,1,9.1,2.9,13.1l-28.4-0.1c-4.3,0-8.5,1.9-11.5,5.3c-2.9,3.1-4.4,7.4-4.4,11.9l-0.1,31.4
			c-3-1.3-6.3-2.1-9.7-2.1l-0.9,0c-14.1,0-25.7,12.5-25.8,28.1C25,391.3,36.5,404,50.7,404.1l0.9,0c3.4,0,6.7-0.7,9.7-2.1l-0.1,31.5
			c0,9.5,7.1,17.2,15.8,17.2l28.4,0.1c-2,4-3,8.6-3,13.1l0,0.9c-0.1,15.5,11.4,28.3,25.6,28.3s25.7-12.5,25.8-28.1l0-0.9
			c0-4.6-1-9.1-2.9-13.1l28.4,0.1c8.8,0,15.9-7.6,15.9-17.1l0.1-33.6c0-4.3-2.2-8.2-5.8-10.2c-3.4-1.9-7.3-1.7-10.5,0.4
			c-2,1.3-4.2,1.9-6.6,2l-0.9,0c-3.5,0-6.9-1.6-9.4-4.6c-2.7-3.1-4.2-7.2-4.2-11.8c0-4.4,1.6-8.7,4.3-11.7c2.6-2.9,5.9-4.4,9.4-4.5
			l0.9,0c2.3,0,4.5,0.7,6.5,2c3.2,2.1,7.1,2.3,10.5,0.5c3.6-1.9,5.9-5.8,5.9-10.2l0.2-33.5c0-5-2-9.4-5-12.6
			c-2.8-2.9-6.6-4.6-10.8-4.6l-28.4-0.1c2-4,3-8.6,3-13.1l0-0.9c0.1-15.5-11.4-28.3-25.6-28.3s-25.7,12.5-25.8,28.1L102.9,288.1z"/>
	</g>
</g>
</svg>
