<?xml version="1.0" encoding="iso-8859-1"?>
<!-- Generator: Adobe Illustrator 19.0.0, SVG Export Plug-In . SVG Version: 6.00 Build 0)  -->
<svg version="1.1" id="Capa_1" xmlns="http://www.w3.org/2000/svg" xmlns:xlink="http://www.w3.org/1999/xlink" x="0px" y="0px"
	 viewBox="0 0 491.28 491.28" style="enable-background:new 0 0 491.28 491.28;" xml:space="preserve">
<g>
	<g>
		<g>
			<path d="M474.472,411.28v-75.496c0-20.376-8.688-39.88-23.832-53.512l-56.168-50.552v-26.856l-74.728-16.608
				c-38.936-74.48-117.512-120.648-177.112-146.32C77.536,13.888,22.2,3.816,19.88,3.408L0.808,0L11.92,15.864
				C16.528,22.448,126,176.56,292.84,225.912l33.576,67.152l26.232-8.744l49.624,43.416c5.216,4.56,8.2,11.144,8.2,18.064v65.48h-16
				v80h96v-80H474.472z M295.176,209.808C167.136,171,71.872,65.52,38.248,23.88C94.48,37.792,247,84.752,305.16,194.832
				L295.176,209.808z M349.696,268.44l-15.176,5.056l-26.816-53.64l10.384-15.576l60.384,13.416v14.776L349.696,268.44z
				 M365.504,274.296l21.92-27.4l52.504,47.264c11.784,10.608,18.544,25.776,18.544,41.624v75.496h-32V345.8
				c0-11.528-4.976-22.504-13.664-30.104L365.504,274.296z M474.472,475.28h-64v-16h48v-16h-48v-16h64V475.28z"/>
			
				<rect x="208.865" y="159.263" transform="matrix(-0.7894 -0.6139 0.6139 -0.7894 352.6705 455.5175)" width="91.217" height="16"/>
		</g>
	</g>
</g>
<g>
</g>
<g>
</g>
<g>
</g>
<g>
</g>
<g>
</g>
<g>
</g>
<g>
</g>
<g>
</g>
<g>
</g>
<g>
</g>
<g>
</g>
<g>
</g>
<g>
</g>
<g>
</g>
<g>
</g>
</svg>
